<?xml version="1.0" standalone="no"?><!DOCTYPE svg PUBLIC "-//W3C//DTD SVG 1.1//EN" "http://www.w3.org/Graphics/SVG/1.1/DTD/svg11.dtd"><svg t="1762049214371" class="icon" viewBox="0 0 1024 1024" version="1.1" xmlns="http://www.w3.org/2000/svg" p-id="8423" xmlns:xlink="http://www.w3.org/1999/xlink" width="200" height="200"><path d="M514.944 988.352c-145.408 0-416-215.168-416-418.624v-388.48c0-9.344 8-16.96 17.856-17.152l23.552-0.384c0.896 0 93.248-1.92 188.48-39.296 97.728-38.4 160.64-82.432 161.28-82.88l14.016-9.792a18.816 18.816 0 0 1 21.44-0.064l14.08 9.856c0.64 0.448 63.744 44.544 161.408 82.88a607.36 607.36 0 0 0 188.608 39.296l23.36 0.384a17.664 17.664 0 0 1 17.792 17.216l0.192 388.416c0 203.456-270.528 418.56-416.064 418.56zM866.816 216.96a674.432 674.432 0 0 1-189.12-42.56 956.928 956.928 0 0 1-162.752-82.112c-24.128 15.488-82.88 50.752-162.688 82.112a675.712 675.712 0 0 1-189.248 42.56v343.168c0 159.552 235.648 354.56 351.936 354.56 45.056 0 132.864-36.224 219.2-115.968 83.2-76.8 132.864-166.016 132.864-238.592l-0.192-343.168zM505.6 674.944a31.68 31.68 0 0 1-45.248 0l-160-160A32 32 0 0 1 345.6 469.76l137.408 137.344L732.352 357.76a31.936 31.936 0 1 1 45.248 45.248l-272 271.936z" fill="#BBBBBB" p-id="8424"></path></svg>