<?xml version="1.0" standalone="no"?><!DOCTYPE svg PUBLIC "-//W3C//DTD SVG 1.1//EN" "http://www.w3.org/Graphics/SVG/1.1/DTD/svg11.dtd"><svg class="icon" width="200px" height="200.00px" viewBox="0 0 1024 1024" version="1.1" xmlns="http://www.w3.org/2000/svg"><path d="M512 1058.13333333C210.37013333 1058.13333333-34.13333333 813.62986667-34.13333333 512S210.37013333-34.13333333 512-34.13333333s546.13333333 244.50346667 546.13333333 546.13333333-244.50346667 546.13333333-546.13333333 546.13333333z m276.4256-606.80853333h-310.12266667a26.9792 26.9792 0 0 0-26.97813333 26.9792l-0.02773333 67.41973333c0 14.88213333 12.06933333 26.9792 26.95146666 26.9792h188.8256c14.90986667 0 26.9792 12.06933333 26.9792 26.95146667v13.48906667a80.90986667 80.90986667 0 0 1-80.90986666 80.90986666h-256.24533334a26.9792 26.9792 0 0 1-26.95146666-26.9792V410.8832a80.90986667 80.90986667 0 0 1 80.88213333-80.90986667h377.5424a26.9792 26.9792 0 0 0 26.95146667-26.97813333l0.08213333-67.4208a26.9792 26.9792 0 0 0-26.95253333-26.9792H410.8288a202.26133333 202.26133333 0 0 0-202.26133333 202.288V788.42666667c0 14.9088 12.0704 26.9792 26.98026666 26.9792h397.80266667a182.02666667 182.02666667 0 0 0 182.02666667-182.02666667V478.27626667a26.9792 26.9792 0 0 0-26.9792-26.95146667z" fill="#C71D23" /></svg>